<svg viewBox="0 0 30 32" xmlns="http://www.w3.org/2000/svg"><path d="M30 15.93c0 8.997-6.106 15.273-15 15.273-8.895 0-15-6.276-15-15.274 0-1.436.15-2.722.452-4.007.075-.151.302-.227.452-.151l4.146 2.268c1.357.832 1.583 1.89 1.658 2.647.227 5.292 3.618 8.921 8.367 8.921 4.975 0 8.442-3.856 8.442-9.526 0-5.595-3.542-9.527-8.442-9.527-3.316 0-5.955 1.739-7.311 4.612 0 .076-.151.151-.226.151H1.13c-.227 0-.377-.227-.302-.378C2.713 4.815 7.989.883 15.075.883c8.82 0 15 6.2 14.925 15.046z" fill="currentColor" fill-rule="evenodd"></path></svg>