<svg viewBox="0 0 150 52" xmlns="http://www.w3.org/2000/svg" xmlns:xlink="http://www.w3.org/1999/xlink" class="sc-hgZQmf ldwbEl"><title>Ocean logo</title><g id="VD-Mobile" stroke="none" stroke-width="1" fill="currentColor" fill-rule="evenodd"><g id="1.0-Login" transform="translate(-105.000000, -60.000000)" fill="currentColor"><g id="Ocean-logo" transform="translate(105.000000, 60.000000)"><g id="Group-6" transform="translate(0.000000, -0.000000)"><path d="M68.2948006,45.7300251 C67.8435134,46.1800251 67.2417971,46.4050251 66.4896517,46.4050251 C65.7375063,46.4050251 65.13579,46.1800251 64.6845028,45.7300251 C64.2332155,45.2800251 64.0075719,44.6800251 64.0075719,44.0050251 C64.0075719,43.3300251 64.2332155,42.8050251 64.6845028,42.3550251 C65.13579,41.9050251 65.7375063,41.6800251 66.4896517,41.6800251 C67.2417971,41.6800251 67.8435134,41.9050251 68.2948006,42.3550251 C68.7460878,42.7300251 68.9717314,43.3300251 68.9717314,44.0050251 C68.9717314,44.6800251 68.7460878,45.2800251 68.2948006,45.7300251 L68.2948006,45.7300251 Z M68.8965169,40.1800251 L68.8965169,41.2300251 C68.5956588,40.8550251 68.1443715,40.5550251 67.6930843,40.3300251 C67.1665825,40.1050251 66.6400808,40.0300251 66.0383645,40.0300251 C65.2862191,40.0300251 64.5340737,40.2550251 63.9323574,40.5550251 C63.2554266,40.8550251 62.8041393,41.3050251 62.4280666,41.9050251 C62.0519939,42.4300251 61.9015649,43.1050251 61.9015649,43.9300251 C61.9015649,44.7550251 62.0519939,45.4300251 62.4280666,46.0300251 C62.8041393,46.6300251 63.3306411,47.1550251 63.9323574,47.4550251 C64.5340737,47.8300251 65.2862191,47.9800251 66.0383645,47.9800251 C66.6400808,47.9800251 67.1665825,47.8300251 67.6178698,47.6800251 C68.069157,47.4550251 68.5204442,47.2300251 68.8213024,46.8550251 L68.8213024,47.4550251 C68.8213024,48.2800251 68.6708733,48.9550251 68.2195861,49.3300251 C67.8435134,49.7050251 67.1665825,49.9300251 66.2640081,49.9300251 C65.7375063,49.9300251 65.13579,49.7800251 64.6092882,49.6300251 C64.0827865,49.4050251 63.6314992,49.1800251 63.2554266,48.8800251 L62.4280666,50.3050251 C62.8793539,50.6800251 63.4810702,50.9800251 64.158001,51.2050251 C64.9101464,51.4300251 65.6622918,51.5050251 66.4144372,51.5050251 C69.3478041,51.5050251 70.8520949,50.0050251 70.8520949,47.1550251 L70.8520949,40.1800251 L69.046946,40.1800251 L68.8965169,40.1800251 Z M123.351843,46.1050251 C122.900555,46.5550251 122.298839,46.7800251 121.621908,46.7800251 C120.944977,46.7800251 120.343261,46.5550251 119.891974,46.1050251 C119.440687,45.5800251 119.215043,44.9800251 119.215043,44.2300251 C119.215043,43.4800251 119.440687,42.8050251 119.891974,42.3550251 C120.343261,41.9050251 120.944977,41.6800251 121.621908,41.6800251 C122.298839,41.6800251 122.900555,41.9050251 123.351843,42.3550251 C123.80313,42.8800251 124.028773,43.4800251 124.028773,44.2300251 C124.028773,44.9800251 123.727915,45.6550251 123.351843,46.1050251 L123.351843,46.1050251 Z M123.80313,40.5550251 C123.126199,40.1800251 122.374054,40.0300251 121.546694,40.0300251 C120.719334,40.0300251 119.967188,40.1800251 119.290257,40.5550251 C118.613327,40.9300251 118.086825,41.3800251 117.710752,42.0550251 C117.334679,42.7300251 117.18425,43.4050251 117.18425,44.2300251 C117.18425,45.0550251 117.334679,45.7300251 117.710752,46.4050251 C118.086825,47.0800251 118.613327,47.5300251 119.290257,47.9050251 C119.967188,48.2800251 120.719334,48.4300251 121.546694,48.4300251 C122.374054,48.4300251 123.126199,48.2800251 123.80313,47.9050251 C124.480061,47.5300251 125.006562,47.0800251 125.382635,46.4050251 C125.758708,45.7300251 125.909137,45.0550251 125.909137,44.2300251 C125.909137,43.4050251 125.758708,42.6550251 125.382635,42.0550251 C125.006562,41.4550251 124.480061,40.9300251 123.80313,40.5550251 L123.80313,40.5550251 Z M58.8929833,41.0050251 C59.4946996,41.6050251 59.7955578,42.5050251 59.7955578,43.7050251 L59.7955578,48.4300251 L57.8399798,48.4300251 L57.8399798,44.0050251 C57.8399798,43.2550251 57.6143362,42.7300251 57.313478,42.3550251 C57.0126199,41.9800251 56.4861181,41.8300251 55.8844018,41.8300251 C55.207471,41.8300251 54.6057547,42.0550251 54.229682,42.4300251 C53.8536093,42.8050251 53.6279657,43.4050251 53.6279657,44.2300251 L53.6279657,48.3550251 L51.6723877,48.3550251 L51.6723877,40.1050251 L53.4775366,40.1050251 L53.4775366,41.1550251 C53.7783948,40.7800251 54.229682,40.5550251 54.6809692,40.3300251 C55.207471,40.1050251 55.7339727,40.0300251 56.335689,40.0300251 C57.3886926,40.0300251 58.2160525,40.3300251 58.8929833,41.0050251 L58.8929833,41.0050251 Z M132.979303,40.1050251 L132.979303,41.9050251 C132.828874,41.8300251 132.678445,41.8300251 132.528016,41.8300251 C131.775871,41.8300251 131.249369,42.0550251 130.798082,42.5050251 C130.422009,42.9550251 130.196365,43.5550251 130.196365,44.3800251 L130.196365,48.3550251 L128.240787,48.3550251 L128.240787,40.1800251 L130.045936,40.1800251 L130.045936,41.3800251 C130.647653,40.4800251 131.625442,40.0300251 132.979303,40.1050251 L132.979303,40.1050251 Z M109.361938,46.4050251 L109.88844,47.7550251 C109.662797,47.9800251 109.361938,48.1300251 109.06108,48.2050251 C108.685008,48.2800251 108.384149,48.3550251 108.008077,48.3550251 C107.105502,48.3550251 106.428571,48.1300251 105.90207,47.6800251 C105.375568,47.2300251 105.149924,46.5550251 105.149924,45.6550251 L105.149924,41.7550251 L103.796063,41.7550251 L103.796063,40.2550251 L105.149924,40.2550251 L105.149924,38.3800251 L107.105502,38.3800251 L107.105502,40.2550251 L109.286724,40.2550251 L109.286724,41.7550251 L107.105502,41.7550251 L107.105502,45.6550251 C107.105502,46.0300251 107.255931,46.3300251 107.40636,46.5550251 C107.55679,46.7800251 107.857648,46.8550251 108.23372,46.8550251 C108.609793,46.8550251 108.985866,46.7800251 109.361938,46.4050251 L109.361938,46.4050251 Z M85.0676426,43.1050251 C84.6163554,43.4800251 84.0146391,43.6300251 83.1120646,43.6300251 L80.7804139,43.6300251 L80.7804139,39.3550251 L83.1120646,39.3550251 C83.9394245,39.3550251 84.6163554,39.5050251 85.0676426,39.8800251 C85.5189298,40.2550251 85.7445734,40.7800251 85.7445734,41.4550251 C85.7445734,42.1300251 85.5189298,42.7300251 85.0676426,43.1050251 L85.0676426,43.1050251 Z M85.5941444,38.0050251 C84.9172135,37.7050251 84.0898536,37.5550251 83.1872792,37.5550251 L78.7496214,37.5550251 L78.7496214,48.2800251 L80.7804139,48.2800251 L80.7804139,45.2050251 L83.1872792,45.2050251 C84.0898536,45.2050251 84.9172135,45.0550251 85.5941444,44.7550251 C86.2710752,44.4550251 86.797577,44.0050251 87.1736497,43.4050251 C87.5497224,42.8050251 87.7001514,42.1300251 87.7001514,41.3800251 C87.7001514,40.6300251 87.5497224,39.9550251 87.1736497,39.3550251 C86.8727915,38.8300251 86.3462898,38.3800251 85.5941444,38.0050251 L85.5941444,38.0050251 Z M99.2831903,46.7800251 C98.9071176,47.0050251 98.4558304,47.0800251 98.0045432,47.0800251 C97.5532559,47.0800251 97.1771832,47.0050251 96.8763251,46.7800251 C96.5754669,46.5550251 96.4250379,46.3300251 96.4250379,45.9550251 C96.4250379,45.2050251 96.9515396,44.8300251 98.0797577,44.8300251 L100.035336,44.8300251 L100.11055,45.8050251 C99.8849066,46.2550251 99.659263,46.5550251 99.2831903,46.7800251 L99.2831903,46.7800251 Z M98.3806159,40.0300251 C97.703685,40.0300251 97.0267542,40.1050251 96.4250379,40.2550251 C95.8233216,40.4050251 95.2968198,40.7050251 94.8455326,41.0050251 L95.5976779,42.4300251 C95.8985361,42.2050251 96.2746088,41.9800251 96.725896,41.8300251 C97.1771832,41.6800251 97.6284705,41.6050251 98.0797577,41.6050251 C98.7566885,41.6050251 99.2079758,41.7550251 99.5840485,42.0550251 C99.9601212,42.4300251 100.11055,42.8050251 100.11055,43.4050251 L100.11055,43.5550251 L98.0045432,43.5550251 C96.8763251,43.5550251 95.9737506,43.7800251 95.4472489,44.2300251 C94.9207471,44.6800251 94.6198889,45.2800251 94.6198889,46.0300251 C94.6198889,46.4800251 94.770318,46.9300251 94.9959616,47.3050251 C95.2216052,47.6800251 95.5976779,47.9800251 96.0489652,48.2050251 C96.5002524,48.4300251 97.0267542,48.5050251 97.6284705,48.5050251 C98.2301868,48.5050251 98.7566885,48.4300251 99.2079758,48.2050251 C99.5840485,47.9800251 99.9601212,47.7550251 100.185765,47.3800251 L100.185765,48.3550251 L101.990914,48.3550251 L101.990914,43.5550251 C101.990914,42.3550251 101.690056,41.5300251 101.013125,40.9300251 C100.336194,40.3300251 99.4336194,40.0300251 98.3806159,40.0300251 L98.3806159,40.0300251 Z M90.1822312,48.3550251 L92.1378092,48.3550251 L92.1378092,36.9550251 L90.1822312,36.9550251 L90.1822312,48.3550251 Z M43.0227158,41.0050251 C43.6244321,41.6050251 43.9252903,42.5050251 43.9252903,43.7050251 L43.9252903,48.4300251 L41.9697123,48.4300251 L41.9697123,44.0050251 C41.9697123,43.2550251 41.7440687,42.7300251 41.4432105,42.3550251 C41.1423523,41.9800251 40.6158506,41.8300251 40.0141343,41.8300251 C39.3372034,41.8300251 38.7354871,42.0550251 38.3594144,42.4300251 C37.9833417,42.8050251 37.7576981,43.4050251 37.7576981,44.2300251 L37.7576981,48.3550251 L35.8021201,48.3550251 L35.8021201,40.1050251 L37.6072691,40.1050251 L37.6072691,41.1550251 C37.9081272,40.7800251 38.3594144,40.5550251 38.8107017,40.3300251 C39.3372034,40.1050251 39.8637052,40.0300251 40.4654215,40.0300251 C41.518425,40.0300251 42.345785,40.3300251 43.0227158,41.0050251 L43.0227158,41.0050251 Z M48.6638062,36.7300251 C48.8894498,36.9550251 49.0398788,37.2550251 49.0398788,37.5550251 C49.0398788,37.8550251 48.8894498,38.1550251 48.6638062,38.3800251 C48.4381625,38.6050251 48.1373044,38.7550251 47.7612317,38.7550251 C47.385159,38.7550251 47.0843009,38.6800251 46.8586572,38.4550251 C46.6330136,38.2300251 46.4825846,37.9300251 46.4825846,37.6300251 C46.4825846,37.3300251 46.6330136,37.0300251 46.8586572,36.8050251 C47.0843009,36.5800251 47.385159,36.5050251 47.7612317,36.5050251 C48.1373044,36.5050251 48.362948,36.5800251 48.6638062,36.7300251 L48.6638062,36.7300251 Z M10.6052499,43.5550251 C10.6804644,42.9550251 10.906108,42.5050251 11.3573953,42.1300251 C11.8086825,41.7550251 12.3351843,41.6050251 12.9369006,41.6050251 C13.5386169,41.6050251 14.0651186,41.7550251 14.5164059,42.1300251 C14.9676931,42.5050251 15.1933367,42.9550251 15.2685512,43.5550251 L10.6052499,43.5550251 Z M15.1181222,40.5550251 C14.5164059,40.1800251 13.839475,40.0300251 13.0121151,40.0300251 C12.1847552,40.0300251 11.4326098,40.1800251 10.8308935,40.5550251 C10.2291772,40.9300251 9.70267542,41.3800251 9.32660273,42.0550251 C8.95053004,42.7300251 8.80010096,43.4050251 8.80010096,44.2300251 C8.80010096,45.0550251 8.95053004,45.7300251 9.32660273,46.4050251 C9.70267542,47.0800251 10.2291772,47.5300251 10.906108,47.9050251 C11.5830389,48.2800251 12.4103988,48.4300251 13.3129732,48.4300251 C13.9899041,48.4300251 14.6668349,48.3550251 15.1933367,48.1300251 C15.795053,47.9050251 16.2463402,47.6050251 16.6224129,47.1550251 L15.5694094,45.9550251 C14.9676931,46.5550251 14.2155477,46.8550251 13.3129732,46.8550251 C12.5608279,46.8550251 11.9591116,46.7050251 11.5078243,46.3300251 C10.9813226,45.9550251 10.6804644,45.5050251 10.6052499,44.9050251 L17.0737002,44.9050251 L17.0737002,44.3050251 C17.0737002,43.4050251 16.9232711,42.7300251 16.5471984,42.0550251 C16.2463402,41.4550251 15.7198385,40.9300251 15.1181222,40.5550251 L15.1181222,40.5550251 Z M2.03079253,46.6300251 L7.59666835,46.6300251 L7.59666835,48.2800251 L0,48.2800251 L0,37.5550251 L2.03079253,37.5550251 L2.03079253,46.6300251 Z M149,43.7800251 L149,48.5050251 L147.044422,48.5050251 L147.044422,44.0800251 C147.044422,43.3300251 146.893993,42.8050251 146.593135,42.4300251 C146.292277,42.0550251 145.840989,41.9050251 145.239273,41.9050251 C144.562342,41.9050251 144.03584,42.1300251 143.659768,42.5050251 C143.283695,42.8800251 143.058051,43.5550251 143.058051,44.3050251 L143.058051,48.4300251 L141.102473,48.4300251 L141.102473,44.0050251 C141.102473,43.2550251 140.952044,42.7300251 140.651186,42.3550251 C140.350328,41.9800251 139.899041,41.8300251 139.297325,41.8300251 C138.620394,41.8300251 138.093892,42.0550251 137.717819,42.4300251 C137.341747,42.8050251 137.116103,43.4050251 137.116103,44.2300251 L137.116103,48.3550251 L135.160525,48.3550251 L135.160525,40.0300251 L136.965674,40.0300251 L136.965674,41.0800251 C137.266532,40.7050251 137.642605,40.4800251 138.093892,40.2550251 C138.545179,40.0300251 138.996466,39.9550251 139.598183,39.9550251 C140.199899,39.9550251 140.801615,40.1050251 141.252903,40.3300251 C141.70419,40.5550251 142.080262,40.9300251 142.381121,41.3800251 C142.681979,41.0050251 143.133266,40.6300251 143.659768,40.4050251 C144.18627,40.1800251 144.712771,40.0300251 145.389702,40.0300251 C146.442706,40.0300251 147.270066,40.3300251 147.871782,40.9300251 C148.473498,41.5300251 148.774356,42.4300251 149,43.7800251 L149,43.7800251 Z M46.7834427,48.3550251 L48.7390207,48.3550251 L48.7390207,40.1800251 L46.7834427,40.1800251 L46.7834427,48.3550251 Z M33.6961131,40.1050251 L33.6961131,41.9050251 C33.545684,41.8300251 33.3952549,41.8300251 33.2448258,41.8300251 C32.4926805,41.8300251 31.9661787,42.0550251 31.5148915,42.5050251 C31.1388188,42.9550251 30.9131752,43.5550251 30.9131752,44.3800251 L30.9131752,48.3550251 L28.9575972,48.3550251 L28.9575972,40.1800251 L30.7627461,40.1800251 L30.7627461,41.3800251 C31.3644624,40.4800251 32.3422514,40.0300251 33.6961131,40.1050251 L33.6961131,40.1050251 Z M115.078243,36.8800251 C115.830389,36.8800251 116.35689,37.0300251 116.808178,37.3300251 L116.281676,38.7550251 C115.980818,38.5300251 115.604745,38.3800251 115.228672,38.3800251 C114.401312,38.3800251 114.02524,38.8300251 114.02524,39.7300251 L114.02524,40.2550251 L116.281676,40.2550251 L116.281676,41.7550251 L114.100454,41.7550251 L114.100454,48.3550251 L112.144876,48.3550251 L112.144876,41.7550251 L110.791015,41.7550251 L110.791015,40.2550251 L112.144876,40.2550251 L112.144876,39.7300251 C112.144876,38.8300251 112.37052,38.1550251 112.897022,37.6300251 C113.423523,37.1050251 114.100454,36.8800251 115.078243,36.8800251 L115.078243,36.8800251 Z M23.3917214,46.7800251 C23.0156487,47.0050251 22.5643614,47.0800251 22.1130742,47.0800251 C21.661787,47.0800251 21.2857143,47.0050251 20.9848561,46.7800251 C20.683998,46.5550251 20.5335689,46.3300251 20.5335689,45.9550251 C20.5335689,45.2050251 21.0600707,44.8300251 22.1882887,44.8300251 L24.1438667,44.8300251 L24.2190813,45.8050251 C23.9934377,46.2550251 23.767794,46.5550251 23.3917214,46.7800251 L23.3917214,46.7800251 Z M22.4139324,40.0300251 C21.7370015,40.0300251 21.0600707,40.1050251 20.4583544,40.2550251 C19.8566381,40.4050251 19.3301363,40.7050251 18.8788491,41.0050251 L19.6309944,42.4300251 C19.9318526,42.2050251 20.3079253,41.9800251 20.7592125,41.8300251 C21.2104997,41.6800251 21.661787,41.6050251 22.1130742,41.6050251 C22.790005,41.6050251 23.2412923,41.7550251 23.617365,42.0550251 C23.9934377,42.4300251 24.1438667,42.8050251 24.1438667,43.4050251 L24.1438667,43.5550251 L22.0378597,43.5550251 C20.9096416,43.5550251 20.0070671,43.7800251 19.4805654,44.2300251 C18.9540636,44.6800251 18.6532055,45.2800251 18.6532055,46.0300251 C18.6532055,46.4800251 18.8036345,46.9300251 19.0292781,47.3050251 C19.2549218,47.6800251 19.6309944,47.9800251 20.0822817,48.2050251 C20.5335689,48.4300251 21.0600707,48.5050251 21.661787,48.5050251 C22.2635033,48.5050251 22.790005,48.4300251 23.2412923,48.2050251 C23.617365,47.9800251 23.9934377,47.7550251 24.2190813,47.3800251 L24.2190813,48.3550251 L26.0242302,48.3550251 L26.0242302,43.5550251 C26.0242302,42.3550251 25.723372,41.5300251 25.0464412,40.9300251 C24.4447249,40.3300251 23.5421504,40.0300251 22.4139324,40.0300251 L22.4139324,40.0300251 Z"></path><path d="M149.24608,1.48795195 L143.29206,1.48795195 C143.140553,1.48795195 142.989799,1.63917147 142.989799,1.79039098 L142.989799,19.4074642 C142.989799,19.5586837 142.839045,19.5586837 142.763668,19.4830739 L129.42196,1.56356171 C129.347337,1.48795195 129.271206,1.4123422 129.195829,1.4123422 L124.447839,1.4123422 C124.296332,1.4123422 124.145578,1.56356171 124.145578,1.71478122 L124.145578,30.3708788 C124.145578,30.5220983 124.296332,30.6733178 124.447839,30.6733178 L130.401859,30.6733178 C130.552613,30.6733178 130.703367,30.5220983 130.703367,30.3708788 L130.703367,13.1318544 C130.703367,12.9806349 130.854874,12.9806349 130.929497,13.0562446 L144.120452,30.5977081 C144.195829,30.6733178 144.271206,30.7489276 144.346583,30.7489276 L149.170704,30.7489276 C149.322211,30.7489276 149.472211,30.5977081 149.472211,30.4464885 L149.472211,1.79039098 C149.547588,1.63917147 149.396834,1.48795195 149.24608,1.48795195 L149.24608,1.48795195 Z M87.8139196,1.48795195 L67.3867839,1.48795195 C67.311407,1.48795195 67.2360302,1.56356171 67.2360302,1.63917147 L67.2360302,30.5977081 C67.2360302,30.6733178 67.311407,30.7489276 67.3867839,30.7489276 L87.8139196,30.7489276 C87.8900503,30.7489276 87.9646734,30.6733178 87.9646734,30.5977081 L87.9646734,25.3806349 C87.9646734,25.3050251 87.8900503,25.2294154 87.8139196,25.2294154 L74.0199497,25.2294154 C73.9445729,25.2294154 73.869196,25.1538056 73.869196,25.0781959 L73.869196,18.9538056 C73.869196,18.8781959 73.9445729,18.8025861 74.0199497,18.8025861 L86.0056281,18.8025861 C86.0802513,18.8025861 86.1556281,18.7269763 86.1556281,18.6513666 L86.1556281,13.5099032 C86.1556281,13.4342934 86.0802513,13.3586837 86.0056281,13.3586837 L74.0199497,13.3586837 C73.9445729,13.3586837 73.869196,13.2830739 73.869196,13.2074642 L73.869196,6.78063488 C73.869196,6.70502513 73.9445729,6.62941537 74.0199497,6.62941537 L87.8139196,6.62941537 C87.8900503,6.62941537 87.9646734,6.55380561 87.9646734,6.47819586 L87.9646734,1.26112269 C87.9646734,1.56356171 87.8900503,1.48795195 87.8139196,1.48795195 L87.8139196,1.48795195 Z M108.542563,1.48795195 L102.512412,1.48795195 C102.437035,1.48795195 102.437035,1.48795195 102.361658,1.56356171 L90.3767337,30.5220983 C90.3013568,30.5977081 90.3767337,30.7489276 90.5282412,30.7489276 L97.2360302,30.7489276 C97.3121608,30.7489276 97.3121608,30.7489276 97.3867839,30.6733178 L105.527487,8.97331781 L105.678241,8.97331781 L109.372462,19.1806349 C109.372462,19.2562446 109.372462,19.3318544 109.220955,19.3318544 L102.512412,19.3318544 C102.437035,19.3318544 102.361658,19.4074642 102.361658,19.4830739 C102.437035,19.7855129 102.738543,20.087952 103.04005,20.3147812 C103.266181,20.4660007 109.522462,23.79283 109.522462,23.79283 C110.803869,24.4733178 111.783769,25.6074642 112.311407,26.9684398 L113.668191,30.5977081 C113.668191,30.6733178 113.743568,30.6733178 113.818945,30.6733178 L120.527487,30.6733178 C120.602864,30.6733178 120.678995,30.5977081 120.678995,30.4464885 L108.693317,1.48795195 L108.542563,1.48795195 Z M48.391809,6.62941537 C52.2360302,6.62941537 54.7234673,8.97331781 55.7033668,12.6781959 C55.7787437,12.8294154 55.8541206,12.9050251 56.0048744,12.9050251 L62.1857789,12.9050251 C62.3365327,12.9050251 62.4872864,12.6781959 62.4872864,12.5269763 C61.2812563,5.26843976 55.7787437,0.80746415 48.3164322,0.80746415 C39.3465829,0.80746415 33.4671859,6.93185439 33.4671859,16.0806349 C33.4671859,25.2294154 39.4219598,31.3538056 48.3164322,31.3538056 C55.7787437,31.3538056 61.2812563,26.89283 62.4872864,19.6342934 C62.4872864,19.4074642 62.3365327,19.2562446 62.1857789,19.2562446 L56.0048744,19.2562446 C55.8541206,19.2562446 55.7033668,19.3318544 55.7033668,19.4830739 C54.7234673,23.187952 52.2360302,25.5318544 48.391809,25.5318544 C43.4169347,25.5318544 40.1003518,21.7513666 40.1003518,16.0806349 C40.1003518,10.4099032 43.4169347,6.62941537 48.391809,6.62941537 L48.391809,6.62941537 Z M29.9998492,15.9294154 C29.9998492,24.9269763 23.8943216,31.2025861 14.9998492,31.2025861 C6.10537688,31.2025861 -0.000150753769,24.9269763 -0.000150753769,15.9294154 C-0.000150753769,14.49283 0.150603015,13.2074642 0.452110553,11.9220983 C0.527487437,11.7708788 0.75361809,11.695269 0.904371859,11.7708788 L5.0501005,14.0391715 C6.40688442,14.8708788 6.63301508,15.9294154 6.70839196,16.6855129 C6.93452261,21.9781959 10.3264824,25.6074642 15.0752261,25.6074642 C20.0501005,25.6074642 23.5174372,21.7513666 23.5174372,16.0806349 C23.5174372,10.4855129 19.9747236,6.55380561 15.0752261,6.55380561 C11.7586432,6.55380561 9.12045226,8.29283 7.76366834,11.1660007 C7.76366834,11.2416105 7.61291457,11.3172202 7.53753769,11.3172202 L1.13050251,11.3172202 C0.904371859,11.3172202 0.75361809,11.090391 0.828994975,10.9391715 C2.71341709,4.81478122 7.98979899,0.883073906 15.0752261,0.883073906 C23.8943216,0.883073906 30.0752261,7.08307391 29.9998492,15.9294154 L29.9998492,15.9294154 Z" id="Fill-3"></path></g></g></g></g></svg>