<svg viewBox="0 0 65 30" xmlns="http://www.w3.org/2000/svg" xmlns:xlink="http://www.w3.org/1999/xlink"><title>Seagull logo</title><g stroke="none" stroke-width="1" fill="currentColor" fill-rule="evenodd"><g transform="translate(-634.000000, -730.000000)" fill="currentColor"><g transform="translate(634.000000, 705.000000)"><g transform="translate(0.000000, 25.000000)"><g id="Seagull-logo" transform="translate(-0.000000, 0.000000)"><path d="M14.7173692,13.1660187 C14.5400327,12.8269065 16.7949393,11.0754112 18.9159673,9.11195327 C19.6600794,8.42419626 20.6471355,8.34625234 21.0672757,8.10975701 C21.4864346,7.87326168 23.6185374,5.64835514 24.6581636,5.19330841 C25.2926495,4.91573832 26.0614346,5.04695327 26.0614346,5.04695327 C26.0614346,5.04695327 25.3509673,4.44653271 24.9128832,4.33690654 C26.3535841,4.00788785 27.5928364,3.09639252 27.5928364,3.09639252 C27.5928364,3.09639252 28.8503131,4.93858879 31.3300794,4.8655514 C33.9175093,4.78886916 34.1912944,3.86209346 35.449472,3.86209346 C37.4363411,3.86209346 41.1916682,5.02957009 42.996014,6.19606542 C44.8007804,7.36171963 47.0251262,9.6237757 47.1891449,9.80517757 C47.4262009,10.0688692 47.1835374,10.2933084 46.8975561,10.0593364 C46.6966682,9.89643925 43.6338645,7.25335514 41.0817617,6.37774766 C38.5299393,5.5031215 36.5244252,5.10204673 35.2306402,5.77648598 C34.3698925,6.22578505 34.1367617,7.08835514 34.1912944,7.32541121 C34.246528,7.56260748 34.6184439,7.94728037 34.7933972,8.25611215 C35.3405467,9.22143925 34.9576963,10.0060654 34.9576963,10.3331215 C34.9576963,10.6621402 34.8839579,11.4279813 34.684472,11.4090561 C34.4834439,11.3911121 34.499285,10.9634019 34.3191449,10.6798037 C34.0638645,10.278729 33.2412477,9.88326168 32.9158738,9.58662617 C32.4961542,9.20279439 32.0957804,9.42176636 30.8552664,8.63896262 C29.6153131,7.85405607 28.2855,6.52382243 27.5015748,6.52382243 C26.6631168,6.52382243 26.1032103,7.6748972 25.6058271,8.07358879 C23.8557336,9.47685981 22.8351729,9.47685981 22.6530701,9.58662617 C22.4701262,9.69569159 21.8380234,10.6161589 19.4263879,11.5736355 C17.8037243,12.2176542 14.9720888,13.6513458 14.7173692,13.1660187 M35.5747991,19.8864393 C34.3405935,19.8864393 33.8328364,18.4577944 33.8328364,17.5705514 C33.8328364,16.544243 34.3996121,15.3495701 35.5476028,15.3495701 C36.7581168,15.3495701 37.2791916,16.5750841 37.2791916,17.6473738 C37.2791916,18.455972 36.8506402,19.8864393 35.5747991,19.8864393 M26.766715,19.8656916 C25.5330701,19.8656916 25.0407336,18.405785 25.0407336,17.6015327 C25.0407336,16.544243 25.5770888,15.3495701 26.7870421,15.3495701 C27.9505935,15.3495701 28.4870888,16.544243 28.4870888,17.6015327 C28.4870888,18.405785 27.9583037,19.8656916 26.766715,19.8656916 M18.4105935,15.1663458 C19.4369019,15.1663458 20.0490981,15.8856449 20.1713411,16.8508318 L16.6644252,16.8508318 C16.7713879,15.9166262 17.4306869,15.1663458 18.4105935,15.1663458 M56.3101262,19.638729 L54.8301729,19.638729 L54.8301729,11.0911121 C54.8301729,10.3563925 54.3703598,9.86643925 53.7270421,9.86643925 C53.0838645,9.86643925 52.6241916,10.3563925 52.6241916,11.0911121 L52.6241916,19.638729 L51.4306402,19.638729 L51.4306402,11.0911121 C51.4306402,10.3563925 50.9712477,9.86643925 50.3277897,9.86643925 C49.683771,9.86643925 49.2249393,10.3563925 49.2249393,11.0911121 L49.2249393,19.638729 L47.8690514,19.638729 C47.9552664,19.3287757 48.0009673,18.9895234 48.0009673,18.6278411 L48.0009673,14.6451308 C48.0009673,13.9098505 47.5414346,13.4191963 46.8979766,13.4191963 C46.2545187,13.4191963 45.7951262,13.9098505 45.7951262,14.6451308 L45.7951262,18.582 C45.7951262,19.040972 45.4476028,19.8840561 44.3664813,19.8840561 C43.3239112,19.8840561 42.946528,19.040972 42.946528,18.582 L42.946528,14.6451308 C42.946528,13.9098505 42.4862944,13.4191963 41.8428364,13.4191963 C41.2003598,13.4191963 40.7406869,13.9098505 40.7406869,14.6451308 L40.7406869,18.6278411 C40.7406869,18.9895234 40.784986,19.3287757 40.8731636,19.638729 L39.484472,19.638729 L39.484472,14.6451308 C39.484472,13.9098505 39.0249393,13.4191963 38.3813411,13.4191963 C37.769285,13.4191963 37.416715,13.7578879 37.2791916,14.3391028 C36.8655,13.6653645 36.0074159,13.3279346 35.2572757,13.3279346 C33.0364346,13.3279346 31.6271355,15.3962523 31.6271355,17.6161121 C31.6271355,18.3291028 31.743771,19.0240093 31.9790047,19.638729 L30.6927897,19.638729 L30.6927897,14.8605981 C30.6927897,14.2935421 30.6927897,13.4191963 29.6362009,13.4191963 C29.1001262,13.4191963 28.6404533,13.8027477 28.5789112,14.3391028 C28.0889579,13.6495234 27.2929766,13.3279346 26.4801729,13.3279346 C24.4588178,13.3279346 22.8354533,15.181486 22.8354533,17.6015327 C22.8354533,18.357 22.9830701,19.044757 23.2456402,19.638729 L22.1224626,19.638729 C21.9828364,19.299757 21.6500327,19.0265327 21.2901729,19.0265327 C20.9237243,19.0265327 20.4775093,19.3782617 19.9153598,19.638729 C19.9153598,19.638729 19.4223224,19.880972 18.7358271,19.880972 C17.3640981,19.880972 16.7987243,18.950972 16.709986,18.3222336 L21.4118551,18.3222336 C22.0861542,18.3222336 22.3771822,17.9995234 22.3771822,17.3402243 C22.3771822,15.5027944 20.8002196,13.3279346 18.4105935,13.3279346 C16.0825093,13.3279346 14.4585841,15.365972 14.4585841,17.6015327 C14.4585841,18.3520935 14.6169953,19.0422336 14.9067617,19.638729 L13.7528832,19.638729 C13.9198458,19.2344299 14.0154533,18.7849907 14.0154533,18.2911121 C14.0154533,14.3391028 8.90087383,15.3495701 8.90087383,13.7717664 C8.90087383,13.1288692 9.49807009,12.7772804 10.156528,12.7772804 C11.0754533,12.7772804 11.5658271,13.2356916 12.1930234,13.2356916 C12.8214813,13.2356916 13.2198925,12.6998972 13.2198925,12.1022804 C13.2198925,10.8927477 11.0754533,10.5715794 10.2175093,10.5715794 C8.18003271,10.5715794 6.41928505,11.9039159 6.41928505,14.0487757 C6.41928505,17.6015327 11.5344252,16.5139626 11.5344252,18.3222336 C11.5344252,19.0719533 10.9832103,19.638729 9.97274299,19.638729 C8.97713551,19.638729 8.11947196,19.040972 7.39933178,19.040972 C6.77087383,19.040972 6.37288318,19.531486 6.37288318,20.1295234 C6.37288318,21.5142897 8.7266215,21.8217196 9.95493925,21.8426075 C9.96124766,21.8426075 9.96615421,21.843729 9.97274299,21.843729 L37.2121822,21.843729 C37.0016215,22.6335421 36.3025093,23.0696636 35.4105,23.0696636 C34.1390047,23.0696636 33.3581636,22.3802243 32.6530234,22.3802243 C32.2241916,22.3802243 31.7646589,22.9317196 31.7646589,23.3454112 C31.7646589,24.5556449 34.3375093,24.999757 35.2421355,24.999757 C37.4764346,24.999757 39.0894252,23.9419065 39.4191449,21.843729 L56.3101262,21.843729 C57.0461075,21.843729 57.5359206,21.3851776 57.5359206,20.7410187 C57.5359206,20.0981215 57.0461075,19.638729 56.3101262,19.638729 M32.3990047,27.8400841 C15.9438645,27.8400841 2.04236916,21.9316262 2.04236916,14.9403645 C2.04236916,7.94882243 15.9438645,2.04134579 32.3990047,2.04134579 C48.8545654,2.04134579 62.7564813,7.94882243 62.7564813,14.9403645 C62.7564813,21.9316262 48.8545654,27.8400841 32.3990047,27.8400841 M32.3990047,-5.60747664e-05 C14.2314813,-5.60747664e-05 -1.40186916e-05,6.56223364 -1.40186916e-05,14.9403645 C-1.40186916e-05,23.3183551 14.2314813,29.8812056 32.3990047,29.8812056 C50.567229,29.8812056 64.7984439,23.3183551 64.7984439,14.9403645 C64.7984439,6.56223364 50.567229,-5.60747664e-05 32.3990047,-5.60747664e-05" id="Fill-1"></path></g></g></g></g></g></svg>