<svg viewBox="0 0 80 15" xmlns="http://www.w3.org/2000/svg" xmlns:xlink="http://www.w3.org/1999/xlink"><title>Videotel logo</title><g stroke="none" stroke-width="1" fill="currentColor" fill-rule="evenodd"><g transform="translate(-719.000000, -738.000000)" fill="currentColor"><g transform="translate(634.000000, 705.000000)"><g id="Group" transform="translate(0.000000, 25.000000)"><g id="Videotel-logo" transform="translate(85.000000, 8.000000)"><path d="M8.71046217,4.51038037 L-4.90797546e-05,-4.90797546e-05 L3.75586094,6.01958282 L8.71046217,4.51038037 Z M9.9642863,14.1583149 L17.4067403,7.19226176 L15.3093988,6.36166871 L9.9642863,14.1583149 Z M9.04943967,14.0995828 L9.04943967,4.84952147 L1.51078937,7.14579959 L9.04943967,14.0995828 Z M9.79823313,14.0995828 L18.7785194,0.0694805726 L9.79823313,4.84935787 L9.79823313,14.0995828 Z M79.832589,1.60076892 L79.671771,2.06833538 L79.6702986,2.06833538 L79.505227,1.60076892 L79.3583149,1.60076892 L79.3583149,2.19839673 L79.4579468,2.19839673 L79.4579468,1.73721063 L79.4594192,1.73721063 L79.6251452,2.19839673 L79.711362,2.19839673 L79.8769243,1.73721063 L79.8785603,1.73721063 L79.8785603,2.19839673 L79.9781922,2.19839673 L79.9781922,1.60076892 L79.832589,1.60076892 Z M78.8071493,1.69107566 L78.9961063,1.69107566 L78.9961063,2.19839673 L79.1009734,2.19839673 L79.1009734,1.69107566 L79.2907485,1.69107566 L79.2907485,1.60076892 L78.8071493,1.60076892 L78.8071493,1.69107566 Z M76.6013415,13.3471902 L78.4766789,13.3471902 L78.4766789,1.60093252 L76.6013415,1.60093252 L76.6013415,13.3471902 Z M73.821137,8.34596319 C73.7990511,8.04984867 73.7360654,7.7648589 73.6320164,7.49050307 C73.5274765,7.21647444 73.3851452,6.97794683 73.2042045,6.77492025 C73.0232638,6.57205726 72.8038773,6.40747648 72.5462086,6.28134151 C72.2883763,6.15537014 72.0004417,6.09205726 71.6825685,6.09205726 C71.353407,6.09205726 71.0545112,6.14980777 70.786045,6.264818 C70.5169243,6.37999182 70.2867403,6.53917382 70.0948384,6.74203681 C69.9029366,6.94506339 69.7494806,7.183591 69.6343067,7.45761963 C69.5189693,7.73181186 69.4559836,8.02792638 69.4451861,8.34596319 L73.821137,8.34596319 Z M75.5731207,7.72903067 C75.7319755,8.32698569 75.7732025,8.9439182 75.6964744,9.57982822 L69.4451861,9.57982822 C69.4451861,9.90882618 69.4914847,10.2270266 69.5848998,10.5339387 C69.6779877,10.8411779 69.817865,11.1098078 70.0043681,11.3401554 C70.1908712,11.5703395 70.426454,11.7542249 70.711771,11.8911575 C70.9969243,12.0284172 71.337047,12.0968016 71.7318119,12.0968016 C72.2800327,12.0968016 72.7214233,11.9791738 73.0561472,11.7431002 C73.390544,11.5075174 73.6401963,11.1536524 73.8047771,10.6819959 L75.5814642,10.6819959 C75.4828139,11.1426912 75.3125072,11.5539796 75.0715256,11.9158609 C74.8300532,12.2779059 74.5393374,12.5822004 74.1995419,12.828908 C73.8595828,13.0756155 73.4783967,13.2622822 73.0561472,13.3882536 C72.6337342,13.5142249 72.1925072,13.5773742 71.7318119,13.5773742 C71.0626912,13.5773742 70.4706258,13.4675992 69.9551247,13.2483763 C69.4394601,13.0291534 69.0034683,12.7219141 68.6471493,12.3271493 C68.2908303,11.9323845 68.0220368,11.4608916 67.8412597,10.9123436 C67.6601554,10.3641227 67.5695215,9.76076892 67.5695215,9.10277301 C67.5695215,8.49974642 67.6653906,7.92649489 67.857456,7.3835092 C68.0493579,6.84068712 68.3237137,6.3636319 68.6800327,5.95217996 C69.0363517,5.54105521 69.4669448,5.21483845 69.9714847,4.97352965 C70.4758609,4.73238446 71.0463313,4.61148466 71.6825685,4.61148466 C72.351362,4.61148466 72.951771,4.75136196 73.4839591,5.03111656 C74.01582,5.31070757 74.457047,5.68076892 74.8081309,6.14146421 C75.1590511,6.60215951 75.4141022,7.13140286 75.5731207,7.72903067 L75.5731207,7.72903067 Z M65.513407,2.29181186 L63.6379059,2.29181186 L63.6379059,4.84183231 L62.2232638,4.84183231 L62.2232638,6.24011452 L63.6379059,6.24011452 L63.6379059,11.257865 C63.6487035,11.6089489 63.6843681,11.9215869 63.7447362,12.1956155 C63.8049407,12.4698078 63.9202781,12.6972106 64.0902577,12.8783149 C64.2602372,13.0592556 64.4959836,13.1965153 64.7976605,13.2896033 C65.0993374,13.3825276 65.4967198,13.4294806 65.9904622,13.4294806 C66.1985603,13.4294806 66.4017505,13.4183558 66.5992147,13.3964335 C66.7966789,13.3743476 66.9993783,13.352589 67.2078037,13.3306667 L67.2078037,11.8829775 C67.0762699,11.9158609 66.9445726,11.9351656 66.8128753,11.9405644 C66.6813415,11.9462904 66.5498078,11.9487444 66.4181104,11.9487444 C66.2096851,11.9487444 66.0451043,11.9240409 65.9246953,11.8747975 C65.8037955,11.8253906 65.7134888,11.7514438 65.6531207,11.6526299 C65.5927526,11.5539796 65.5544703,11.433407 65.5379468,11.2907485 C65.5215869,11.1482536 65.513407,10.9781104 65.513407,10.7808098 L65.513407,6.24011452 L67.2078037,6.24011452 L67.2078037,4.84183231 L65.513407,4.84183231 L65.513407,2.29181186 Z M60.216229,9.08624949 C60.216229,8.7243681 60.1694397,8.36232311 60.0763517,8.00044172 C59.9829366,7.63856033 59.8379877,7.31774233 59.6405235,7.03815133 C59.4430593,6.75839673 59.1906258,6.53099387 58.8837137,6.35528834 C58.5764744,6.18007362 58.214593,6.09205726 57.7979059,6.09205726 C57.3810552,6.09205726 57.0190102,6.18007362 56.7120982,6.35528834 C56.4048589,6.53099387 56.1527526,6.75839673 55.9552883,7.03815133 C55.7578241,7.31774233 55.6123845,7.63856033 55.5194601,8.00044172 C55.4262086,8.36232311 55.3795828,8.7243681 55.3795828,9.08624949 C55.3795828,9.45925562 55.4262086,9.8239182 55.5194601,10.1802372 C55.6123845,10.5367198 55.7578241,10.8575378 55.9552883,11.1426912 C56.1527526,11.4280082 56.4048589,11.6583558 56.7120982,11.8335706 C57.0190102,12.0091125 57.3810552,12.0968016 57.7979059,12.0968016 C58.214593,12.0968016 58.5764744,12.0091125 58.8837137,11.8335706 C59.1906258,11.6583558 59.4430593,11.4280082 59.6405235,11.1426912 C59.8379877,10.8575378 59.9829366,10.5367198 60.0763517,10.1802372 C60.1694397,9.8239182 60.216229,9.45925562 60.216229,9.08624949 L60.216229,9.08624949 Z M61.8036319,7.29303885 C61.9955337,7.84158691 62.0915665,8.43921472 62.0915665,9.08624949 C62.0915665,9.7442454 61.9955337,10.3475992 61.8036319,10.89582 C61.6117301,11.4443681 61.3319755,11.9158609 60.9646953,12.3107894 C60.5970879,12.7055542 60.1475174,13.0155746 59.61582,13.2401963 C59.0836319,13.464818 58.4776605,13.5773742 57.7979059,13.5773742 C57.1178241,13.5773742 56.5120164,13.464818 55.9799918,13.2401963 C55.4479673,13.0155746 54.9983967,12.7055542 54.630953,12.3107894 C54.2633456,11.9158609 53.9837546,11.4443681 53.79218,10.89582 C53.6001145,10.3475992 53.5042454,9.7442454 53.5042454,9.08624949 C53.5042454,8.43921472 53.6001145,7.84158691 53.79218,7.29303885 C53.9837546,6.744818 54.2633456,6.27299796 54.630953,5.87823313 C54.9983967,5.4834683 55.4479673,5.17377505 55.9799918,4.94882618 C56.5120164,4.7242045 57.1178241,4.61148466 57.7979059,4.61148466 C58.4776605,4.61148466 59.0836319,4.7242045 59.61582,4.94882618 C60.1475174,5.17377505 60.5970879,5.4834683 60.9646953,5.87823313 C61.3319755,6.27299796 61.6117301,6.744818 61.8036319,7.29303885 L61.8036319,7.29303885 Z M50.8390511,8.34596319 C50.8169652,8.04984867 50.7539796,7.7648589 50.6497669,7.49050307 C50.5455542,7.21647444 50.4032229,6.97794683 50.2221186,6.77492025 C50.0411779,6.57205726 49.8216278,6.40747648 49.5641227,6.28134151 C49.3062904,6.15537014 49.0183558,6.09205726 48.700319,6.09205726 C48.3713211,6.09205726 48.072589,6.14980777 47.8037955,6.264818 C47.5348384,6.37999182 47.3046544,6.53917382 47.1127526,6.74203681 C46.9210143,6.94506339 46.7673947,7.183591 46.6522209,7.45761963 C46.537047,7.73181186 46.4738978,8.02792638 46.4631002,8.34596319 L50.8390511,8.34596319 Z M52.5910348,7.72903067 C52.7498896,8.32698569 52.790953,8.9439182 52.7145521,9.57982822 L46.4631002,9.57982822 C46.4631002,9.90882618 46.5095624,10.2270266 46.6028139,10.5339387 C46.6960654,10.8411779 46.8356155,11.1098078 47.0224458,11.3401554 C47.2087853,11.5703395 47.4443681,11.7542249 47.7296851,11.8911575 C48.0148384,12.0284172 48.3549611,12.0968016 48.749726,12.0968016 C49.2979468,12.0968016 49.7393374,11.9791738 50.0740613,11.7431002 C50.4086217,11.5075174 50.6581104,11.1536524 50.8226912,10.6819959 L52.5993783,10.6819959 C52.5005644,11.1426912 52.3305849,11.5539796 52.0892761,11.9158609 C51.8481309,12.2779059 51.5572515,12.5822004 51.2172924,12.828908 C50.8773333,13.0756155 50.4961472,13.2622822 50.0740613,13.3882536 C49.6516483,13.5142249 49.2104213,13.5773742 48.749726,13.5773742 C48.0806053,13.5773742 47.4883763,13.4675992 46.9730389,13.2483763 C46.4573742,13.0291534 46.0213824,12.7219141 45.665227,12.3271493 C45.3085808,11.9323845 45.0397873,11.4608916 44.8590102,10.9123436 C44.6782331,10.3641227 44.5875992,9.76076892 44.5875992,9.10277301 C44.5875992,8.49974642 44.6834683,7.92649489 44.8755337,7.3835092 C45.067272,6.84068712 45.3414642,6.3636319 45.6981104,5.95217996 C46.0544294,5.54105521 46.4848589,5.21483845 46.9893988,4.97352965 C47.4937751,4.73238446 48.0642454,4.61148466 48.700319,4.61148466 C49.3691125,4.61148466 49.9696851,4.75136196 50.5018732,5.03111656 C51.0335706,5.31070757 51.4747975,5.68076892 51.826045,6.14146421 C52.1768016,6.60215951 52.4320164,7.13140286 52.5910348,7.72903067 L52.5910348,7.72903067 Z M41.7251043,9.08624949 C41.7251043,8.1431002 41.5138978,7.40821268 41.0918119,6.88175051 C40.6693988,6.35528834 40.0964744,6.09205726 39.3727117,6.09205726 C38.9337751,6.09205726 38.5637137,6.18269121 38.2622004,6.3636319 C37.9603599,6.5445726 37.7136524,6.78048262 37.5219141,7.07103476 C37.3300123,7.36175051 37.1929162,7.69074847 37.1106258,8.05802863 C37.0283354,8.42563599 36.987272,8.80125971 36.987272,9.1848998 C36.987272,9.54694479 37.0337342,9.9034274 37.1269857,10.2543476 C37.2200736,10.6054315 37.3628957,10.9180695 37.5549611,11.1919346 C37.7465358,11.4662904 37.9907894,11.6855133 38.2869039,11.8500941 C38.5830184,12.0146748 38.9337751,12.0968016 39.3398282,12.0968016 C39.7565153,12.0968016 40.1156155,12.0091125 40.4172924,11.8335706 C40.7188057,11.6583558 40.9655133,11.4280082 41.1575787,11.1426912 C41.349317,10.8575378 41.4921391,10.5367198 41.5853906,10.1802372 C41.6784785,9.8239182 41.7251043,9.45925562 41.7251043,9.08624949 L41.7251043,9.08624949 Z M41.6591738,1.60093252 L43.5348384,1.60093252 L43.5348384,13.3471902 L41.7579877,13.3471902 L41.7579877,12.1956155 L41.7251043,12.1956155 C41.4726708,12.6890307 41.1055542,13.0427321 40.6229366,13.2565562 C40.1401554,13.470544 39.6302168,13.5773742 39.0929571,13.5773742 C38.4238364,13.5773742 37.8399509,13.4594192 37.3408098,13.2236728 C36.8416687,12.98809 36.4279264,12.667272 36.0987648,12.2613824 C35.7697669,11.8556564 35.5230593,11.37582 35.3584785,10.8218732 C35.1940613,10.26809 35.111771,9.67307975 35.111771,9.03684254 C35.111771,8.26939877 35.2159836,7.60567689 35.4242454,7.04633129 C35.6326708,6.48698569 35.9096442,6.02629039 36.255002,5.664409 C36.6006871,5.30252761 36.9954519,5.03667894 37.4394601,4.86653579 C37.8836319,4.69655624 38.3361472,4.61148466 38.7968425,4.61148466 C39.0600736,4.61148466 39.3285399,4.63618814 39.6030593,4.68559509 C39.8769243,4.73500204 40.1401554,4.81451125 40.392589,4.9241227 C40.6446953,5.03389775 40.8779877,5.17377505 41.0918119,5.343591 C41.305636,5.51373415 41.4837955,5.71365235 41.626454,5.9441636 L41.6591738,5.9441636 L41.6591738,1.60093252 Z M32.1835092,3.37761963 L34.0588466,3.37761963 L34.0588466,1.60093252 L32.1835092,1.60093252 L32.1835092,3.37761963 Z M32.1835092,13.3471902 L34.0588466,13.3471902 L34.0588466,4.84183231 L32.1835092,4.84183231 L32.1835092,13.3471902 Z M29.3540613,1.60093252 L31.4432229,1.60093252 L27.429317,13.3471902 L25.142364,13.3471902 L21.2271084,1.60093252 L23.3658405,1.60093252 L26.3106258,10.89582 L26.3435092,10.89582 L29.3540613,1.60093252 Z" id="Fill-1"></path></g></g></g></g></g></svg>